<?xml version="1.0" encoding="utf-8"?>
<!-- Generator: Adobe Illustrator 23.0.1, SVG Export Plug-In . SVG Version: 6.00 Build 0)  -->
<svg version="1.1" id="レイヤー_1" xmlns="http://www.w3.org/2000/svg" xmlns:xlink="http://www.w3.org/1999/xlink" x="0px"
	 y="0px" viewBox="0 0 1190.6 94" style="enable-background:new 0 0 1190.6 94;" xml:space="preserve">
<style type="text/css">
	.st0{fill:#97B7C9;}
</style>
<g>
	<rect y="0" class="st0" width="1190.6" height="94"/>
	<g>
		<g>
			<path d="M370.9,35.6h2.1v8h0c0.4-0.6,0.9-1,1.6-1.3c0.7-0.3,1.4-0.5,2.2-0.5c0.8,0,1.6,0.1,2.3,0.4c0.7,0.3,1.3,0.7,1.7,1.2
				c0.5,0.5,0.9,1.1,1.1,1.8s0.4,1.5,0.4,2.3s-0.1,1.6-0.4,2.2s-0.6,1.3-1.1,1.8c-0.5,0.5-1.1,0.9-1.7,1.2c-0.7,0.3-1.4,0.4-2.3,0.4
				c-0.7,0-1.5-0.2-2.1-0.5c-0.7-0.3-1.2-0.8-1.6-1.4h0v1.6h-2.1V35.6z M376.6,51.3c0.6,0,1-0.1,1.5-0.3c0.4-0.2,0.8-0.5,1.1-0.8
				s0.5-0.7,0.7-1.2c0.2-0.5,0.3-1,0.3-1.5s-0.1-1.1-0.3-1.5c-0.2-0.5-0.4-0.9-0.7-1.2s-0.7-0.6-1.1-0.8c-0.4-0.2-0.9-0.3-1.5-0.3
				c-0.6,0-1,0.1-1.5,0.3c-0.4,0.2-0.8,0.5-1.1,0.8s-0.5,0.7-0.7,1.2c-0.2,0.5-0.3,1-0.3,1.5s0.1,1.1,0.3,1.5
				c0.2,0.5,0.4,0.9,0.7,1.2s0.7,0.6,1.1,0.8C375.5,51.2,376,51.3,376.6,51.3z"/>
			<path d="M426.8,52.9h-2.1v-1.7h0c-0.3,0.6-0.7,1.1-1.4,1.4c-0.6,0.4-1.4,0.5-2.2,0.5c-0.5,0-1-0.1-1.5-0.2
				c-0.5-0.2-0.9-0.4-1.3-0.7c-0.4-0.3-0.6-0.8-0.9-1.3c-0.2-0.5-0.3-1.2-0.3-1.9v-7h2.1v6.4c0,0.5,0.1,0.9,0.2,1.3
				c0.1,0.4,0.3,0.7,0.6,0.9s0.5,0.4,0.8,0.5c0.3,0.1,0.6,0.1,0.9,0.1c0.4,0,0.8-0.1,1.2-0.2s0.7-0.4,1-0.7c0.3-0.3,0.5-0.7,0.6-1.1
				c0.2-0.5,0.2-1,0.2-1.6v-5.6h2.1V52.9z"/>
			<path d="M462,42.1h2.1v1.7h0c0.3-0.6,0.7-1.1,1.4-1.4c0.6-0.4,1.4-0.5,2.2-0.5c0.5,0,1,0.1,1.5,0.2c0.5,0.2,0.9,0.4,1.3,0.7
				c0.4,0.3,0.6,0.8,0.9,1.3s0.3,1.2,0.3,1.9v7h-2.1v-6.4c0-0.5-0.1-0.9-0.2-1.3c-0.1-0.4-0.3-0.7-0.6-0.9s-0.5-0.4-0.8-0.5
				s-0.6-0.1-0.9-0.1c-0.4,0-0.8,0.1-1.2,0.2c-0.4,0.1-0.7,0.4-1,0.7c-0.3,0.3-0.5,0.7-0.6,1.1c-0.2,0.5-0.2,1-0.2,1.6v5.6H462V42.1
				z"/>
			<path d="M517.8,52.8c0,0.8-0.1,1.6-0.4,2.3c-0.3,0.7-0.7,1.3-1.2,1.8s-1.1,0.9-1.9,1.2c-0.7,0.3-1.5,0.4-2.4,0.4
				c-1,0-2-0.1-2.9-0.4s-1.7-0.8-2.5-1.5l1.4-1.7c0.5,0.6,1.1,1,1.7,1.3c0.6,0.3,1.3,0.4,2.1,0.4c0.8,0,1.4-0.1,1.9-0.3
				c0.5-0.2,0.9-0.5,1.2-0.9c0.3-0.4,0.5-0.8,0.6-1.2c0.1-0.5,0.2-0.9,0.2-1.4v-1.6h-0.1c-0.4,0.7-0.9,1.1-1.6,1.5
				c-0.7,0.3-1.4,0.5-2.1,0.5c-0.8,0-1.5-0.1-2.2-0.4c-0.7-0.3-1.3-0.7-1.8-1.2c-0.5-0.5-0.9-1.1-1.1-1.8c-0.3-0.7-0.4-1.4-0.4-2.2
				s0.1-1.5,0.4-2.2c0.3-0.7,0.6-1.3,1.1-1.8c0.5-0.5,1.1-0.9,1.7-1.2c0.7-0.3,1.4-0.4,2.3-0.4c0.7,0,1.5,0.2,2.1,0.5
				c0.7,0.3,1.2,0.8,1.6,1.4h0v-1.6h2.1V52.8z M512.2,43.7c-0.6,0-1,0.1-1.5,0.3c-0.4,0.2-0.8,0.5-1.1,0.8s-0.5,0.7-0.7,1.2
				c-0.2,0.5-0.3,1-0.3,1.5c0,1.1,0.3,2,1,2.7c0.6,0.7,1.5,1,2.6,1s2-0.3,2.6-1c0.6-0.7,1-1.5,1-2.7c0-0.6-0.1-1.1-0.3-1.5
				c-0.2-0.5-0.4-0.9-0.7-1.2s-0.7-0.6-1.1-0.8C513.2,43.8,512.7,43.7,512.2,43.7z"/>
			<path d="M553.2,43.4c0.6-0.5,1.3-0.9,2-1.2c0.8-0.3,1.5-0.4,2.3-0.4c0.8,0,1.5,0.1,2.1,0.3c0.6,0.2,1,0.5,1.4,0.8
				c0.4,0.3,0.6,0.7,0.8,1.2s0.3,0.9,0.3,1.4V51c0,0.4,0,0.7,0,1.1c0,0.3,0,0.6,0.1,0.9h-1.8c0-0.6-0.1-1.1-0.1-1.7h0
				c-0.5,0.7-1,1.2-1.6,1.5c-0.6,0.3-1.4,0.4-2.2,0.4c-0.5,0-1-0.1-1.4-0.2c-0.5-0.1-0.9-0.3-1.2-0.6c-0.3-0.3-0.6-0.6-0.8-1
				c-0.2-0.4-0.3-0.9-0.3-1.4c0-0.7,0.2-1.3,0.5-1.8c0.3-0.5,0.7-0.9,1.3-1.2s1.2-0.5,1.9-0.6s1.5-0.2,2.3-0.2h1.5v-0.5
				c0-0.3-0.1-0.6-0.2-0.8c-0.1-0.3-0.3-0.5-0.5-0.7c-0.2-0.2-0.5-0.4-0.8-0.5s-0.7-0.2-1.1-0.2c-0.4,0-0.7,0-1,0.1
				c-0.3,0.1-0.6,0.2-0.8,0.3c-0.2,0.1-0.5,0.2-0.7,0.4c-0.2,0.2-0.4,0.3-0.6,0.4L553.2,43.4z M559,47.7c-0.5,0-1,0-1.5,0.1
				s-1,0.2-1.4,0.3c-0.4,0.2-0.8,0.4-1,0.6c-0.3,0.3-0.4,0.6-0.4,1.1c0,0.6,0.2,1.1,0.6,1.4s1,0.4,1.7,0.4c0.6,0,1-0.1,1.4-0.3
				c0.4-0.2,0.7-0.4,1-0.7c0.2-0.3,0.4-0.6,0.5-1c0.1-0.4,0.2-0.7,0.2-1.1v-0.7H559z"/>
			<path d="M635.7,42.1h1.9v1.7h0c0-0.2,0.2-0.3,0.4-0.6c0.2-0.2,0.4-0.4,0.7-0.7c0.3-0.2,0.7-0.4,1.1-0.5s0.9-0.2,1.3-0.2
				c0.8,0,1.5,0.2,2,0.5c0.6,0.3,1,0.8,1.4,1.5c0.4-0.7,0.8-1.2,1.5-1.5c0.6-0.3,1.3-0.5,2-0.5c0.8,0,1.5,0.1,2.1,0.4
				c0.5,0.3,1,0.6,1.3,1.1c0.3,0.5,0.5,1,0.6,1.5c0.1,0.6,0.2,1.2,0.2,1.8v6.3h-2.1v-6.1c0-0.4,0-0.8-0.1-1.2
				c-0.1-0.4-0.2-0.7-0.3-1c-0.2-0.3-0.4-0.5-0.7-0.7c-0.3-0.2-0.7-0.3-1.2-0.3c-1,0-1.7,0.3-2.1,0.9c-0.4,0.6-0.6,1.4-0.6,2.4v5.9
				h-2.1v-5.7c0-0.5,0-1-0.1-1.4s-0.2-0.8-0.3-1.1c-0.2-0.3-0.4-0.6-0.7-0.7c-0.3-0.2-0.7-0.3-1.2-0.3c-0.4,0-0.7,0.1-1.1,0.2
				c-0.3,0.1-0.6,0.4-0.9,0.7c-0.3,0.3-0.5,0.7-0.6,1.1c-0.2,0.5-0.2,1-0.2,1.6v5.6h-2.1V42.1z"/>
			<path d="M687.1,38.2c0-0.4,0.1-0.8,0.4-1.1c0.3-0.3,0.7-0.4,1.1-0.4c0.4,0,0.8,0.1,1.1,0.4c0.3,0.3,0.4,0.7,0.4,1.1
				c0,0.4-0.1,0.8-0.4,1.1c-0.3,0.3-0.7,0.4-1.1,0.4c-0.4,0-0.8-0.1-1.1-0.4C687.2,38.9,687.1,38.6,687.1,38.2z M687.6,42.1h2.1
				v10.9h-2.1V42.1z"/>
			<path d="M734.7,52.9h-2.1v-1.7h0c-0.3,0.6-0.7,1.1-1.4,1.4c-0.6,0.4-1.4,0.5-2.2,0.5c-0.5,0-1-0.1-1.5-0.2
				c-0.5-0.2-0.9-0.4-1.3-0.7c-0.4-0.3-0.6-0.8-0.9-1.3c-0.2-0.5-0.3-1.2-0.3-1.9v-7h2.1v6.4c0,0.5,0.1,0.9,0.2,1.3
				c0.1,0.4,0.3,0.7,0.6,0.9s0.5,0.4,0.8,0.5c0.3,0.1,0.6,0.1,0.9,0.1c0.4,0,0.8-0.1,1.2-0.2c0.4-0.1,0.7-0.4,1-0.7
				c0.3-0.3,0.5-0.7,0.6-1.1s0.2-1,0.2-1.6v-5.6h2.1V52.9z"/>
			<path d="M770,42.1h2.1v1.7h0c0.1-0.3,0.3-0.6,0.6-0.8s0.5-0.4,0.8-0.6c0.3-0.2,0.6-0.3,0.9-0.4c0.3-0.1,0.7-0.1,1-0.1
				s0.6,0,0.9,0.1l-0.1,2.2c-0.2,0-0.3-0.1-0.5-0.1c-0.2,0-0.3,0-0.5,0c-1,0-1.8,0.3-2.3,0.8c-0.5,0.6-0.8,1.4-0.8,2.6v5.5H770V42.1
				z"/>
			<path d="M810.7,43.4c0.6-0.5,1.3-0.9,2-1.2c0.8-0.3,1.5-0.4,2.3-0.4c0.8,0,1.5,0.1,2.1,0.3s1,0.5,1.4,0.8
				c0.4,0.3,0.6,0.7,0.8,1.2c0.2,0.4,0.3,0.9,0.3,1.4V51c0,0.4,0,0.7,0,1.1c0,0.3,0,0.6,0.1,0.9h-1.8c0-0.6-0.1-1.1-0.1-1.7h0
				c-0.5,0.7-1,1.2-1.6,1.5c-0.6,0.3-1.4,0.4-2.2,0.4c-0.5,0-1-0.1-1.4-0.2c-0.5-0.1-0.9-0.3-1.2-0.6c-0.3-0.3-0.6-0.6-0.8-1
				c-0.2-0.4-0.3-0.9-0.3-1.4c0-0.7,0.2-1.3,0.5-1.8c0.3-0.5,0.7-0.9,1.3-1.2c0.5-0.3,1.2-0.5,1.9-0.6c0.7-0.1,1.5-0.2,2.3-0.2h1.5
				v-0.5c0-0.3-0.1-0.6-0.2-0.8c-0.1-0.3-0.3-0.5-0.5-0.7c-0.2-0.2-0.5-0.4-0.8-0.5s-0.7-0.2-1.1-0.2c-0.4,0-0.7,0-1,0.1
				c-0.3,0.1-0.6,0.2-0.8,0.3s-0.5,0.2-0.7,0.4c-0.2,0.2-0.4,0.3-0.6,0.4L810.7,43.4z M816.5,47.7c-0.5,0-1,0-1.5,0.1
				c-0.5,0.1-1,0.2-1.4,0.3c-0.4,0.2-0.8,0.4-1,0.6c-0.3,0.3-0.4,0.6-0.4,1.1c0,0.6,0.2,1.1,0.6,1.4c0.4,0.3,1,0.4,1.7,0.4
				c0.6,0,1-0.1,1.4-0.3c0.4-0.2,0.7-0.4,1-0.7c0.2-0.3,0.4-0.6,0.5-1c0.1-0.4,0.2-0.7,0.2-1.1v-0.7H816.5z"/>
		</g>
	</g>
</g>
</svg>
