<?xml version="1.0" encoding="utf-8"?>
<!-- Generator: Adobe Illustrator 23.0.3, SVG Export Plug-In . SVG Version: 6.00 Build 0)  -->
<svg version="1.1" id="レイヤー_1" xmlns="http://www.w3.org/2000/svg" xmlns:xlink="http://www.w3.org/1999/xlink" x="0px"
	 y="0px" viewBox="0 0 595.3 497.1" style="enable-background:new 0 0 595.3 497.1;" xml:space="preserve">
<style type="text/css">
	.st0{enable-background:new    ;}
	.st1{fill:#FFFFFF;}
</style>
<g class="st0">
	<path d="M355.1,101c-0.5-0.6-1.2-1.1-1.8-1.3v0.8c0,1.6,0,1.6,0,1.9h-0.8c0.1-0.5,0.1-1.4,0.1-1.9v-1.3c0-0.1,0-0.3,0-0.4
		c0-0.3,0-1,0-1.1v-0.1l0.8,0.1c0.1,0,0.2,0,0.2,0.1s0,0.1,0,0.1c-0.1,0-0.1,0.1-0.2,0.1c0,0.3-0.1,0.9-0.1,1.2v0.5l0.3-0.5
		c0.6,0.2,1.4,0.8,1.9,1.3L355.1,101z M355.4,98.9c-0.2-0.3-0.3-0.4-0.6-0.6l0.3-0.3c0.3,0.2,0.5,0.3,0.6,0.6L355.4,98.9z
		 M356.1,98.5c-0.2-0.3-0.5-0.6-0.6-0.6l0.3-0.3c0.2,0.1,0.4,0.3,0.6,0.6L356.1,98.5z"/>
</g>
<g class="st0">
	<path d="M361,100.3h-1.4c-0.1,0-1,0-1.6,0.1v-0.7c0.4,0.1,1,0.1,1.6,0.1h1.4c0.5,0,1.1,0,1.6-0.1v0.7
		C362.1,100.3,361.4,100.3,361,100.3z"/>
</g>
<g class="st0">
	<path d="M368.1,102.3c-0.1-0.3-0.1-0.4-0.3-0.8c-1.2,0.1-1.6,0.2-2.6,0.3c-0.2,0-0.9,0.1-1,0.2c-0.2,0.1-0.2,0.1-0.2,0.1
		c-0.1,0,0,0-0.1-0.2l-0.1-0.6c0.2,0,0.4,0,0.9,0c0.3-0.6,1.1-2.9,1.3-3.7l0.7,0.2c0.1,0,0.2,0,0.2,0.1s-0.1,0.1-0.2,0.1
		c-0.1,0.2-0.4,0.8-0.7,1.6c-0.3,0.7-0.3,0.8-0.6,1.5c1.1-0.1,1.3-0.1,2.4-0.2c0-0.1-0.4-0.7-0.8-1l0.5-0.3c0.4,0.3,1,1.3,1.3,2.3
		L368.1,102.3z"/>
</g>
<g class="st0">
	<path d="M352.9,482.8l-0.4-1.2h-1.6l-0.4,1.2h-0.7l1.6-4.4h0.7l1.6,4.4H352.9z M351.7,479.2l-0.6,1.8h1.2L351.7,479.2z"/>
	<path d="M355,480.3c-0.3,0.3-0.3,0.8-0.3,0.8v1.7H354v-3.1h0.6v0.4c0.1-0.2,0.4-0.5,0.8-0.5c0.1,0,0.1,0,0.1,0v0.6
		C355.4,480.1,355.2,480.1,355,480.3z"/>
	<path d="M358.8,478.4v4.4h-0.6v-0.3c-0.3,0.4-0.6,0.5-1,0.5c-1,0-1.4-0.9-1.4-1.7c0-0.8,0.4-1.7,1.4-1.7c0.5,0,0.8,0.2,0.9,0.4
		v-1.5L358.8,478.4L358.8,478.4z M357.3,482.4c0.6,0,0.9-0.5,0.9-1.2c0-0.6-0.3-1.2-0.9-1.2s-0.9,0.5-0.9,1.2
		C356.5,481.9,356.8,482.4,357.3,482.4z"/>
	<path d="M361.6,482.8v-0.4c-0.1,0.2-0.4,0.6-1.1,0.6c-0.6,0-1-0.3-1-1.1v-2.2h0.6v2.1c0,0.3,0.2,0.6,0.6,0.6c0.5,0,0.9-0.6,0.9-1
		v-1.7h0.6v3.1H361.6z"/>
	<path d="M363,479v-0.6h0.6v0.6H363z M363,482.8v-3.1h0.6v3.1H363z"/>
	<path d="M366.5,482.8v-2.1c0-0.3-0.2-0.6-0.6-0.6c-0.5,0-0.9,0.5-0.9,1v1.7h-0.6v-3.1h0.6v0.4c0.1-0.2,0.4-0.5,1.1-0.5
		c0.6,0,1,0.3,1,1.1v2.2h-0.6V482.8z"/>
	<path d="M369.1,482.9c-0.8,0-1.4-0.7-1.4-1.7s0.6-1.7,1.4-1.7c0.9,0,1.4,0.7,1.4,1.7C370.5,482.2,369.9,482.9,369.1,482.9z
		 M369.1,480c-0.6,0-0.8,0.6-0.8,1.2s0.2,1.2,0.8,1.2c0.6,0,0.8-0.6,0.8-1.2S369.7,480,369.1,480z"/>
</g>
<g class="st0">
	<path d="M356,490c-0.3-0.3-0.6-0.6-0.9-1.2c-0.2-0.5-0.3-1-0.3-1.5s0.1-1,0.3-1.5c0.3-0.6,0.6-0.9,0.9-1.2h0.2
		c-0.2,0.4-0.8,1.3-0.8,2.7c0,0.4,0.1,0.9,0.2,1.4c0.2,0.6,0.4,0.9,0.6,1.2H356V490z"/>
	<path d="M358.9,487.3h-1.3v1.8h-0.7v-4.4h1.9c0.8,0,1.4,0.5,1.4,1.3C360.3,486.7,359.8,487.3,358.9,487.3z M358.8,485.3h-1.3v1.4
		h1.3c0.5,0,0.7-0.3,0.7-0.7C359.6,485.7,359.4,485.3,358.8,485.3z"/>
	<path d="M362.9,489.2c-1.3,0-2.1-1-2.1-2.4c0-1.5,1-2.3,2.1-2.3c1,0,1.8,0.5,1.8,1.4H364c-0.1-0.6-0.7-0.8-1.2-0.8
		c-0.3,0-0.6,0.1-0.9,0.3c-0.5,0.4-0.5,1-0.5,1.4c0,1.2,0.8,1.7,1.4,1.7c0.4,0,1.2-0.2,1.2-1.1h0.7
		C364.7,487.8,364.6,489.2,362.9,489.2z"/>
	<path d="M366.4,488.8c-0.3,0.6-0.6,0.9-0.9,1.2h-0.2c0.2-0.4,0.8-1.3,0.8-2.7c0-1.4-0.6-2.3-0.8-2.7h0.2c0.3,0.3,0.7,0.6,1,1.2
		c0.2,0.5,0.3,1,0.3,1.5S366.7,488.3,366.4,488.8z"/>
</g>
<g class="st0">
	<path d="M354.4,414.3c-0.1,0-0.7,0-0.8,0H353v0.8c0,0.6,0,0.6,0.1,0.7s0.5,0.1,0.7,0.1c0.3,0,0.8,0,1.1-0.2v0.6
		c-0.3,0.1-0.8,0.1-1.2,0.1c-0.3,0-0.8,0-1-0.2s-0.2-0.4-0.2-1.1c0-0.1,0-0.7,0-0.8v-0.1h-0.3c-0.6,0-1.1,0-1.7,0.1v-0.6
		c0.2,0,0.4,0.1,0.9,0.1c0.1,0,0.7,0,0.8,0h0.3v-1.3c-1.1,0-1.2,0-1.3,0.1V412c0.3,0,1.1,0.1,1.3,0.1h1.2c0.3,0,0.9,0,1.2,0v0.6
		c-0.2,0-0.2,0-0.5-0.1c-0.1,0-0.5,0-0.6,0H353v1.3h0.6c0.1,0,0.7,0,0.8,0c0.2,0,0.5,0,0.7-0.1v0.6
		C355,414.3,354.7,414.3,354.4,414.3z"/>
</g>
<g class="st0">
	<path d="M359.1,414.5h-1.4c-0.1,0-1,0-1.6,0.1V414c0.4,0.1,1,0.1,1.6,0.1h1.4c0.5,0,1.1,0,1.6-0.1v0.7
		C360.1,414.6,359.4,414.5,359.1,414.5z"/>
</g>
<g class="st0">
	<path d="M365.5,413.3c-0.3,1-0.5,1.3-0.6,1.5c0.2,0.2,0.3,0.3,0.5,0.4l-0.4,0.5c-0.1-0.2-0.3-0.3-0.5-0.4c-0.8,1-1.7,1.4-2.3,1.6
		l-0.5-0.5c0.3-0.1,0.9-0.2,1.6-0.8c0.2-0.2,0.4-0.4,0.6-0.6c-0.2-0.1-0.6-0.4-1.2-0.6l0.3-0.4c0.3,0.1,1,0.4,1.2,0.5
		c0.2-0.4,0.4-0.8,0.5-1.3H363c-0.5,0.7-0.7,1-1.2,1.3l-0.6-0.3c0.2-0.1,0.7-0.4,1.2-1.2c0.1-0.2,0.4-0.6,0.5-0.9
		c0.1-0.1,0.1-0.2,0.1-0.3l0.7,0.3l0.1,0.1c0,0.1-0.1,0.1-0.2,0.1c0,0.1-0.3,0.5-0.3,0.5h0.7c0.1,0,0.5,0,0.7-0.1
		c0.2,0,0.3-0.1,0.4-0.1l0.4,0.4C365.7,413.1,365.6,413.2,365.5,413.3z"/>
</g>
<g class="st0">
	<path d="M369.9,414.5h-1.4c-0.1,0-1,0-1.6,0.1V414c0.5,0.1,1,0.1,1.6,0.1h1.4c0.5,0,1.1,0,1.6-0.1v0.7
		C370.9,414.6,370.2,414.5,369.9,414.5z"/>
</g>
<g class="st0">
	<path d="M358.8,332.4c-0.4,0.7-0.6,1-1.3,1.9c0.2,0,0.3,0,0.6-0.1c-0.1-0.2-0.1-0.3-0.2-0.4l0.5-0.1c0.2,0.5,0.3,1,0.4,1.3
		l-0.6,0.1c0-0.1,0-0.2,0-0.4c-0.3,0.1-0.7,0.1-1.1,0.2c-0.1,0.1-0.1,0.2-0.1,0.2s-0.1,0-0.1-0.1l-0.1-0.6h0.2
		c0.1-0.1,0.4-0.5,0.8-1c-0.2-0.4-0.7-0.7-0.7-0.7v0.6c0,0.3,0,0.3,0,0.9c-0.2,0-0.4,0-0.7,0h-0.3c0,0.4,0,0.5,0,0.6h-0.5
		c0.1-0.3,0.1-0.7,0.1-1.3v-0.7c0,0,0,0.1-0.1,0.1l-0.5-0.3c0.3-0.3,0.8-1.1,0.8-2.1c-0.4,0-0.5,0-0.6,0V330c0.3,0,0.6,0,0.7,0h0.5
		c0.2,0,0.4,0,0.7,0v0.5c-0.2,0-0.2,0-0.7,0h-0.1c0,0.6-0.2,1.1-0.2,1.1h0.4c0.1,0,0.3,0,0.4,0c0,0.3,0,0.5,0,0.8l0.2-0.3
		c0.1,0.1,0.1,0.1,0.2,0.1c0.2-0.3,0.4-0.8,0.5-1.2l0.6,0.3c0,0,0.1,0,0.1,0.1s-0.2,0.1-0.3,0.1c-0.1,0.3-0.4,0.8-0.6,1
		c0.1,0.1,0.2,0.2,0.2,0.3c0.2-0.4,0.3-0.7,0.4-0.9l0.5,0.3c0,0,0.1,0,0.1,0.1C359.1,332.4,359,332.4,358.8,332.4z M356.6,332h-0.4
		v1.6h0.4V332z M359.5,330.9h-0.9c-0.7,0-0.8,0-1.2,0v-0.5c0.4,0,0.5,0,0.9,0c-0.1-0.2-0.3-0.5-0.4-0.7l0.5-0.2
		c0.2,0.2,0.3,0.5,0.4,0.7l-0.3,0.1h1.1l-0.3-0.1c0.1-0.2,0.3-0.4,0.4-0.8l0.6,0.3c0.1,0,0.1,0.1,0.1,0.1c0,0.1-0.2,0.1-0.3,0.1
		c-0.1,0.2-0.2,0.3-0.3,0.4c0.3,0,0.7,0,1,0v0.5C360.4,330.9,359.7,330.9,359.5,330.9z M360.3,335c0-0.2,0-0.3-0.1-0.4
		c-0.4,0.1-0.8,0.1-1.2,0.2c-0.1,0.1-0.1,0.2-0.2,0.2c0,0-0.1,0-0.1-0.1l-0.1-0.6c0.1,0,0.1,0,0.2,0c0.2-0.2,0.4-0.6,0.5-0.7
		c-0.1-0.2-0.4-0.5-0.8-0.8l0.3-0.4c0.1,0,0.1,0,0.1,0.1c0.2-0.3,0.4-0.8,0.6-1.5l0.6,0.3l0.1,0.1c0,0.1-0.1,0.1-0.2,0.1
		c-0.1,0.3-0.4,0.9-0.7,1.3c0,0.1,0.2,0.2,0.3,0.3c0.2-0.3,0.3-0.7,0.4-1l0.5,0.3c0,0,0.1,0,0.1,0.1s-0.1,0.1-0.2,0.1
		c-0.4,0.7-0.9,1.5-1,1.6c0.2,0,0.4,0,0.6-0.1c-0.1-0.2-0.1-0.3-0.2-0.4l0.5-0.1c0.3,0.5,0.4,1,0.5,1.3L360.3,335z"/>
	<path d="M365,330.4h-1c-0.1,0.5-0.4,1-0.5,1.3c0.2,0,0.3,0,0.5,0h1.4c0.2,0,0.4,0,1.1,0c0,0,0,1,0,1.2v0.9c0,0.1,0,0.9,0,1h-0.6
		c0-0.1,0-0.3,0-0.4h-2.5c0,0.1,0,0.3,0,0.4h-0.6c0-0.2,0-0.5,0-0.9v-0.8v-0.5c-0.6,0.7-0.9,0.8-1.1,1l-0.5-0.5
		c0.6-0.2,1.1-0.6,1.5-1.1c0.3-0.5,0.6-1,0.7-1.5h-0.1c-0.6,0-1.2,0-1.8,0v-0.6c0.6,0,1.5,0,1.8,0h1.8c0.1,0,0.9,0,1.9,0v0.6
		C366.2,330.5,365.6,330.4,365,330.4z M365.8,332.3h-2.5v1.7h2.5V332.3z"/>
</g>
<g class="st0">
	<path d="M354.7,165.6c-0.1,0-0.6,0-0.7,0h-0.2v1.1c0,0.3,0,1.1,0,1.4c0,0.7-0.2,0.8-1.2,0.8l-0.3-0.6c0.1,0,0.3,0.1,0.4,0.1
		c0.4,0,0.4-0.1,0.4-0.7c0-0.2,0-0.9,0-1v-0.5c-0.9,1.2-1.9,1.8-2.2,1.9l-0.4-0.5c0.2-0.1,0.6-0.2,1.4-0.9c0.5-0.4,0.7-0.7,0.9-1.1
		h-0.6c-0.5,0-1,0-1.5,0.1v-0.6c0.3,0,1.2,0,1.5,0h1c0-0.9,0-1-0.1-1.2h0.6c0.1,0,0.2,0,0.2,0.1s0,0.1-0.2,0.2c0,0.2,0,0.4,0,0.9
		h0.2c0.2,0,0.8,0,1.2-0.1v0.6C355.1,165.6,355,165.6,354.7,165.6z"/>
</g>
<g class="st0">
	<path d="M360.1,165.2c-0.3,1-0.6,1.9-1.4,2.8c-0.5,0.4-1,0.8-1.5,1l-0.5-0.5c0.9-0.3,1.4-0.6,1.9-1.2c0.6-0.8,0.8-1.4,0.9-2.1h-2.2
		c-0.2,0-0.9,0-1.1,0.1h-0.1v-0.6c0.3,0,0.9,0.1,1.2,0.1h1.2c0.3,0,0.9,0,1,0s0.1,0,0.2-0.1l0.5,0.4
		C360.1,165,360.1,165.1,360.1,165.2z M359.7,164.4c-0.2-0.2-0.3-0.3-0.6-0.5l0.3-0.3c0.2,0.1,0.5,0.3,0.6,0.5L359.7,164.4z
		 M360.7,164.3c-0.1-0.1-0.3-0.3-0.4-0.5l-0.1-0.1l0.3-0.3c0.3,0.2,0.4,0.3,0.6,0.6L360.7,164.3z"/>
</g>
<g class="st0">
	<path d="M363.2,166.4c-0.2-0.1-0.3-0.2-0.7-0.4c-0.4-0.2-0.6-0.2-0.7-0.3l0.3-0.5c0.2,0.1,0.9,0.4,1.4,0.7L363.2,166.4z
		 M362.8,168.8c0,0.1,0,0.2-0.1,0.2c0,0-0.1,0-0.1-0.1l-0.4-0.6c0.3-0.1,1-0.3,2.1-1.1c0.9-0.7,1.3-1.3,1.7-1.9l0.4,0.5
		C365.4,167.2,363.6,168.4,362.8,168.8z M363.8,164.9c-0.4-0.3-1-0.6-1.4-0.7l0.2-0.5c0.5,0.2,1,0.5,1.4,0.7L363.8,164.9z
		 M365.7,164.7c-0.2-0.2-0.3-0.3-0.7-0.5l0.3-0.3c0.2,0.1,0.5,0.3,0.7,0.5L365.7,164.7z M366.3,164.3c-0.1,0-0.6-0.5-0.7-0.5
		l0.3-0.3c0.3,0.2,0.3,0.2,0.7,0.5L366.3,164.3z"/>
</g>
<g class="st0">
	<path d="M369.9,168.9h-2.2c-0.1,0-0.5,0-0.8,0v-0.5c0.3,0,0.6,0,0.9,0h0.8v-2.2H368c-0.2,0-0.6,0-0.8,0v-0.5c0.5,0,0.7,0,0.9,0h1.4
		c0.2,0,0.6,0,0.8,0v0.5c-0.3,0-0.6,0-0.7,0h-0.5v2.2h0.7c0.1,0,0.5,0,0.9,0v0.5C370.5,168.9,370.2,168.9,369.9,168.9z"/>
</g>
<g class="st0">
	<path d="M358.8,243.7c-0.4,0.7-0.6,1-1.3,1.9c0.2,0,0.3,0,0.6-0.1c-0.1-0.2-0.1-0.3-0.2-0.4l0.5-0.1c0.2,0.5,0.3,1,0.4,1.3
		l-0.6,0.1c0-0.1,0-0.2,0-0.4c-0.3,0.1-0.7,0.1-1.1,0.2c-0.1,0.1-0.1,0.2-0.1,0.2s-0.1,0-0.1-0.1l-0.1-0.6h0.2
		c0.1-0.1,0.4-0.5,0.8-1c-0.2-0.4-0.7-0.7-0.7-0.7v0.6c0,0.3,0,0.3,0,0.9c-0.2,0-0.4,0-0.7,0h-0.3c0,0.4,0,0.5,0,0.6h-0.5
		c0.1-0.3,0.1-0.7,0.1-1.3v-0.7c0,0,0,0.1-0.1,0.1l-0.5-0.3c0.3-0.3,0.8-1.1,0.8-2.1c-0.4,0-0.5,0-0.6,0v-0.5c0.3,0,0.6,0,0.7,0h0.5
		c0.2,0,0.4,0,0.7,0v0.5c-0.2,0-0.2,0-0.7,0h-0.1c0,0.6-0.2,1.1-0.2,1.1h0.4c0.1,0,0.3,0,0.4,0c0,0.3,0,0.5,0,0.8l0.2-0.3
		c0.1,0.1,0.1,0.1,0.2,0.1c0.2-0.3,0.4-0.8,0.5-1.2l0.6,0.3c0,0,0.1,0,0.1,0.1s-0.2,0.1-0.3,0.1c-0.1,0.3-0.4,0.8-0.6,1
		c0.1,0.1,0.2,0.2,0.2,0.3c0.2-0.4,0.3-0.7,0.4-0.9l0.5,0.3C358.8,243.5,358.9,243.5,358.8,243.7C359.1,243.7,359,243.7,358.8,243.7
		z M356.6,243.3h-0.4v1.6h0.4V243.3z M359.5,242.2h-0.9c-0.7,0-0.8,0-1.2,0v-0.5c0.4,0,0.5,0,0.9,0c-0.1-0.2-0.3-0.5-0.4-0.7
		l0.5-0.2c0.2,0.2,0.3,0.5,0.4,0.7l-0.3,0.1h1.1l-0.3-0.1c0.1-0.2,0.3-0.4,0.4-0.8l0.6,0.3c0.1,0,0.1,0.1,0.1,0.1
		c0,0.1-0.2,0.1-0.3,0.1c-0.1,0.2-0.2,0.3-0.3,0.4c0.3,0,0.7,0,1,0v0.5C360.4,242.2,359.7,242.2,359.5,242.2z M360.3,246.3
		c0-0.2,0-0.3-0.1-0.4c-0.4,0.1-0.8,0.1-1.2,0.2c-0.1,0.1-0.1,0.2-0.2,0.2c0,0-0.1,0-0.1-0.1l-0.1-0.6c0.1,0,0.1,0,0.2,0
		c0.2-0.2,0.4-0.6,0.5-0.7c-0.1-0.2-0.4-0.5-0.8-0.8l0.3-0.4c0.1,0,0.1,0,0.1,0.1c0.2-0.3,0.4-0.8,0.6-1.5l0.6,0.3l0.1,0.1
		c0,0.1-0.1,0.1-0.2,0.1c-0.1,0.3-0.4,0.9-0.7,1.3c0,0.1,0.2,0.2,0.3,0.3c0.2-0.3,0.3-0.7,0.4-1l0.5,0.3c0,0,0.1,0,0.1,0.1
		s-0.1,0.1-0.2,0.1c-0.4,0.7-0.9,1.5-1,1.6c0.2,0,0.4,0,0.6-0.1c-0.1-0.2-0.1-0.3-0.2-0.4l0.5-0.1c0.3,0.5,0.4,1,0.5,1.3
		L360.3,246.3z"/>
	<path d="M365,241.8h-1c-0.1,0.5-0.4,1-0.5,1.3c0.2,0,0.3,0,0.5,0h1.4c0.2,0,0.4,0,1.1,0c0,0,0,1,0,1.2v0.9c0,0.1,0,0.9,0,1h-0.6
		c0-0.1,0-0.3,0-0.4h-2.5c0,0.1,0,0.3,0,0.4h-0.6c0-0.2,0-0.5,0-0.9v-0.8V244c-0.6,0.7-0.9,0.8-1.1,1l-0.5-0.5
		c0.6-0.2,1.1-0.6,1.5-1.1c0.3-0.5,0.6-1,0.7-1.5h-0.1c-0.6,0-1.2,0-1.8,0v-0.6c0.6,0,1.5,0,1.8,0h1.8c0.1,0,0.9,0,1.9,0v0.6
		C366.2,241.8,365.6,241.8,365,241.8z M365.8,243.6h-2.5v1.7h2.5V243.6z"/>
</g>
<g class="st0">
	<path d="M353.8,204.8c-0.3,1-0.5,1.5-1,2.2s-1.2,1.2-2,1.4l-0.5-0.5c1.8-0.4,2.8-2,2.9-3.3H351c-0.3,0-0.8,0-1.2,0.1v-0.6
		c0.2,0.1,1,0.1,1.2,0.1h1.2c0.1,0,0.8,0,0.9,0s0.1,0,0.3-0.1l0.5,0.4C353.9,204.6,353.8,204.6,353.8,204.8z M354.4,204.2
		c-0.4,0-0.6-0.3-0.6-0.6s0.3-0.7,0.6-0.7c0.4,0,0.7,0.3,0.7,0.7S354.7,204.2,354.4,204.2z M354.4,203.3c-0.2,0-0.3,0.1-0.3,0.3
		s0.1,0.3,0.3,0.3s0.3-0.1,0.3-0.3C354.7,203.4,354.5,203.3,354.4,203.3z"/>
</g>
<g class="st0">
	<path d="M359.4,207.8c0-0.1,0-0.2,0-0.4h-2.9c0,0.1,0,0.2,0,0.3h-0.7c0-0.2,0-0.4,0-0.8c0-0.6,0-0.6,0-0.7V205c0-0.2,0-1.1,0-1.3
		c0.4,0,1.1,0,1.5,0h1.3c0.4,0,1.1,0,1.5,0c0,0.3,0,1,0,1.4v1.2c0,0.1,0,0.6,0,0.7c0,0.4,0,0.6,0.1,0.7h-0.8V207.8z M359.5,204.4h-3
		v2.5h3V204.4z"/>
</g>
<g class="st0">
	<path d="M366.6,207.5c-0.2-0.2-0.5-0.5-0.7-0.7c-0.1-0.2-0.4-0.4-0.4-0.5l-1.1-1.4c-0.1-0.1-0.2-0.2-0.3-0.2
		c-0.1,0-0.3,0.2-0.4,0.2l-0.8,0.8c-0.4,0.5-0.5,0.5-0.7,0.8c0,0,0,0.1-0.1,0.1l-0.6-0.5c0.2-0.1,0.6-0.4,0.8-0.7l0.9-0.9
		c0.1-0.2,0.4-0.5,0.7-0.5c0.3,0,0.5,0.2,0.7,0.4l1.2,1.5c0,0,0.7,0.8,1.2,1.1L366.6,207.5z M366.5,204.8c-0.4,0-0.7-0.3-0.7-0.7
		s0.3-0.7,0.7-0.7c0.4,0,0.7,0.3,0.7,0.7S366.9,204.8,366.5,204.8z M366.5,203.8c-0.2,0-0.3,0.1-0.3,0.3s0.1,0.3,0.3,0.3
		s0.3-0.1,0.3-0.3S366.7,203.8,366.5,203.8z"/>
	<path d="M371.8,205.7c-0.2,0.5-0.6,1.1-1,1.5c-0.5,0.5-0.9,0.7-1.8,1.1l-0.5-0.5c0.5-0.1,1-0.3,1.4-0.6c0.7-0.5,1.3-1.4,1.4-1.9
		h-1.9c-0.5,0-1.3,0-1.7,0.1v-0.6c0.1,0,0.2,0,0.3,0c0.3,0,0.8,0,1.1,0h1.4c0.2,0,0.6,0,0.8,0c0.2,0,0.3-0.1,0.4-0.1l0.5,0.5
		C372,205.2,371.8,205.5,371.8,205.7z M370.4,203.9h-1c-0.3,0-0.7,0-1,0.1v-0.6c0.3,0,0.8,0.1,1,0.1h1c0.3,0,0.7,0,1-0.1v0.6
		C370.9,203.9,370.4,203.9,370.4,203.9z"/>
</g>
<g class="st0">
	<path d="M360,289.1c-0.3,0-0.6,0-0.9,0H357c-0.5,0-1.1,0-1.6,0.1v-0.7c0.7,0.1,1.3,0.1,1.7,0.1h0.7v-2.1h-0.4c-0.1,0-0.7,0-0.8,0
		c-0.3,0-0.6,0-0.8,0v-0.6c0.4,0,1.2,0.1,1.5,0.1h0.4v-0.3c0-0.4,0-0.5,0-1.4l0.8,0.1c0.1,0,0.1,0.1,0.1,0.1s0,0,0,0.1l-0.1,0.1
		c0,0.2,0,0.7,0,1.1v0.3h0.4c0.2,0,0.3,0,0.8,0c0.4,0,0.5,0,0.7,0v0.6c-0.1,0-0.2,0-0.7,0s-0.5,0-0.7,0h-0.5v2.1h0.6
		c0.4,0,1.2,0,1.7-0.1v0.7C360.6,289.2,360.6,289.2,360,289.1z"/>
	<path d="M366.3,286.7c-0.1-0.2-0.3-0.4-0.4-0.6c-0.5,0.1-1.5,0.1-1.7,0.1c-0.4,0-2,0.1-2.3,0.1c-0.1,0.1-0.1,0.2-0.2,0.2
		s-0.1-0.1-0.1-0.1l-0.1-0.7c0.2,0,0.7,0,1.1,0c0.5-0.7,0.8-1.4,0.9-1.8l0.7,0.2c0.1,0,0.1,0.1,0.1,0.1c0,0.1-0.1,0.1-0.3,0.1
		c-0.2,0.3-0.5,0.9-0.8,1.3c0.5,0,0.7,0,2.2-0.1c-0.3-0.3-0.6-0.5-0.8-0.6l0.5-0.4c0.6,0.5,1.2,1.1,1.6,1.7L366.3,286.7z
		 M365.2,289.5c0,0,0-0.2,0-0.3h-2.4c0,0.1,0,0.1,0,0.3h-0.6c0-0.5,0-0.7,0-0.9v-0.8c0-0.4,0-0.6,0-0.9c0.2,0,0.8,0,1.3,0h1
		c0.4,0,0.7,0,1.3-0.1c0,0.2,0,0.9,0,0.9v0.7c0,0.1,0,0.5,0,0.9h-0.6L365.2,289.5L365.2,289.5z M365.3,287.4h-2.4v1.3h2.4V287.4z"/>
</g>
<g>
	<path d="M295.4,126.1H295V86.4c0-19.3-15.7-35.1-35.1-35.1S224.8,67,224.8,86.4v39.7h-0.4V86.4c0-19.6,15.9-35.5,35.5-35.5
		s35.5,15.9,35.5,35.5L295.4,126.1L295.4,126.1z"/>
	<path d="M259.9,135.2c-19.9,0-35.5-4-35.5-9.1s15.6-9.1,35.5-9.1s35.5,4,35.5,9.1S279.8,135.2,259.9,135.2z M259.9,117.4
		c-19.3,0-35.1,3.9-35.1,8.7s15.7,8.7,35.1,8.7s35.1-3.9,35.1-8.7S279.3,117.4,259.9,117.4z"/>
</g>
<path d="M259.8,205.3c-4.5,0-9.2-0.9-9.2-2.5s4.8-2.5,9.2-2.5c4.5,0,9.2,0.9,9.2,2.5C269.1,204.5,264.3,205.3,259.8,205.3z
	 M259.8,200.8c-5.2,0-8.8,1.1-8.8,2c0,1,3.6,2,8.8,2c5.2,0,8.8-1.1,8.8-2C268.6,201.9,265,200.8,259.8,200.8z"/>
<path d="M259.8,209.9c-4.5,0-9.2-0.9-9.2-2.5v-4.5h0.4v4.5c0,1,3.6,2,8.8,2c5.2,0,8.8-1.1,8.8-2v-4.5h0.4v4.5
	C269.1,209,264.3,209.9,259.8,209.9z"/>
<g>
	<path d="M259.7,292.4c-19.9,0-35.5-4-35.5-9.1s15.6-9.1,35.5-9.1s35.5,4,35.5,9.1C295.3,288.4,279.7,292.4,259.7,292.4z
		 M259.7,274.6c-19.3,0-35.1,3.9-35.1,8.7c0,4.8,15.7,8.7,35.1,8.7c19.3,0,35.1-3.9,35.1-8.7C294.8,278.5,279.1,274.6,259.7,274.6z"
		/>
	<path d="M229.2,288l-0.2-0.4c6.1-2.8,17.6-4.5,30.8-4.5c12.6,0,24.3,1.7,30.7,4.5l-0.2,0.4c-6.3-2.7-17.9-4.4-30.5-4.4
		C246.7,283.5,235.3,285.2,229.2,288z"/>
	<path d="M259.7,301.3c-19.9,0-35.5-4-35.5-9.1v-8.9h0.4v8.9c0,4.8,15.7,8.7,35.1,8.7c19.3,0,35.1-3.9,35.1-8.7v-8.9h0.4v8.9
		C295.3,297.3,279.7,301.3,259.7,301.3z"/>
</g>
<g>
	<g>
		<path d="M258,406.7L258,406.7l-35.9-12c-0.1,0-0.2-0.1-0.2-0.2s0.1-0.2,0.2-0.2l39.5-13.8h0.1l35.8,12c0.1,0,0.2,0.1,0.2,0.2
			s-0.1,0.2-0.2,0.2L258,406.7C258.1,406.7,258,406.7,258,406.7z M222.9,394.5l35.1,11.7l38.8-13.6l-35.1-11.7L222.9,394.5z"/>
		<g>
			<path class="st1" d="M258.2,372.4v20.7c0,0.2,0.7,0.4,1.6,0.4s1.6-0.2,1.6-0.4v-20.7H258.2z"/>
			<path d="M259.9,393.8c-0.3,0-1.9,0-1.9-0.6v-21h3.7v21C261.7,393.7,260.2,393.8,259.9,393.8z M258.4,393.1
				c0.1,0.1,0.6,0.2,1.4,0.2s1.3-0.1,1.4-0.2v-20.5h-2.8V393.1z"/>
		</g>
		<g>
			<ellipse class="st1" cx="259.9" cy="372.4" rx="1.6" ry="0.4"/>
			<path d="M259.9,373c-0.3,0-1.9,0-1.9-0.6s1.6-0.6,1.9-0.6s1.9,0,1.9,0.6C261.7,373,260.2,373,259.9,373z M258.5,372.4
				c0.2,0.1,0.7,0.2,1.3,0.2c0.7,0,1.1-0.1,1.3-0.2c-0.2-0.1-0.7-0.2-1.3-0.2C259.2,372.2,258.7,372.3,258.5,372.4z"/>
		</g>
		<g>
			<path class="st1" d="M268.9,366.7v4.5c0,1.3-4,2.3-9,2.3s-9-1-9-2.3v-4.5H268.9z"/>
			<path d="M259.9,373.8c-4.5,0-9.2-0.9-9.2-2.5v-4.8h18.5v4.8C269.1,372.9,264.3,373.8,259.9,373.8z M251.1,367v4.3
				c0,1,3.6,2,8.8,2c5.2,0,8.8-1.1,8.8-2V367H251.1z"/>
		</g>
		<path d="M258,449.8L258,449.8l-35.9-12c-0.1,0-0.2-0.1-0.2-0.2v-43.2c0-0.1,0.1-0.2,0.2-0.2c0.1,0,0.2,0.1,0.2,0.2v43l35.6,11.9
			l39.3-13.8v-43c0-0.1,0.1-0.2,0.2-0.2s0.2,0.1,0.2,0.2v43.2c0,0.1-0.1,0.2-0.2,0.2L258,449.8C258.1,449.8,258,449.8,258,449.8z"/>
		<path d="M258,449.8c-0.1,0-0.2-0.1-0.2-0.2v-43.2c0-0.1,0.1-0.2,0.2-0.2s0.2,0.1,0.2,0.2v43.2C258.2,449.7,258.1,449.8,258,449.8z
			"/>
	</g>
	<g>
		<ellipse class="st1" cx="259.9" cy="366.7" rx="9" ry="2.3"/>
		<path d="M259.9,369.2c-4.5,0-9.2-0.9-9.2-2.5s4.8-2.5,9.2-2.5c4.5,0,9.2,0.9,9.2,2.5S264.3,369.2,259.9,369.2z M259.9,364.7
			c-5.2,0-8.8,1.1-8.8,2s3.6,2,8.8,2c5.2,0,8.8-1.1,8.8-2S265,364.7,259.9,364.7z"/>
	</g>
</g>
<g>
	<path d="M257,155.8l-0.3-0.4c0.3-0.2,0.5-0.5,0.7-0.8c0.4-0.6,0.4-1.1,0.4-1.5h0.4c0,0.4-0.1,1.1-0.5,1.7
		C257.7,155.2,257.4,155.5,257,155.8z"/>
	
		<rect x="258.3" y="155.5" transform="matrix(0.9994 -3.395711e-02 3.395711e-02 0.9994 -5.1753 8.8681)" width="0.4" height="2.6"/>
	<path d="M259.2,153.1c-0.2-0.4-0.4-0.8-0.5-1.2c-0.2-0.7-0.3-1.4-0.3-2.1h0.4c0,0.7,0.1,1.3,0.3,2c0.1,0.4,0.3,0.8,0.5,1.1
		L259.2,153.1z"/>
	<path d="M261.3,155.6c-0.3-0.3-0.5-0.7-0.7-1.1c-0.2-0.5-0.3-1-0.4-1.6h0.4c0,0.5,0.1,1,0.3,1.4c0.2,0.4,0.4,0.7,0.6,1L261.3,155.6
		z"/>
	<path d="M257.8,162l-0.3-0.4c0.3-0.2,0.5-0.5,0.7-0.8c0.4-0.6,0.4-1.1,0.4-1.5h0.4c0,0.4-0.1,1.1-0.5,1.7
		C258.4,161.5,258.1,161.8,257.8,162z"/>
	
		<rect x="259.5" y="160.6" transform="matrix(0.9994 -3.395711e-02 3.395711e-02 0.9994 -5.3478 8.9118)" width="0.4" height="2.6"/>
	<path d="M260.5,159.2c-0.2-0.4-0.4-0.8-0.5-1.2c-0.2-0.7-0.3-1.4-0.3-2.1h0.4c0,0.7,0.1,1.3,0.3,1.9c0.1,0.4,0.3,0.8,0.5,1.1
		L260.5,159.2z"/>
	<path d="M262.8,160.4c-0.3-0.3-0.5-0.7-0.7-1.1c-0.2-0.5-0.3-1-0.4-1.6h0.4c0,0.5,0.1,1,0.3,1.4c0.2,0.4,0.4,0.7,0.6,1L262.8,160.4
		z"/>
	<path d="M254.5,167.2l-0.3-0.4c0.3-0.2,0.5-0.5,0.7-0.8c0.4-0.6,0.4-1.1,0.4-1.5h0.4c0,0.4-0.1,1.1-0.5,1.7
		C255.1,166.7,254.8,167,254.5,167.2z"/>
	
		<rect x="257.4" y="162.7" transform="matrix(0.9994 -3.396000e-02 3.396000e-02 0.9994 -5.4207 8.8425)" width="0.4" height="2.6"/>
	<path d="M262.1,163.7c-0.2-0.4-0.4-0.8-0.5-1.2c-0.2-0.7-0.3-1.4-0.3-2.1h0.4c0,0.7,0.1,1.3,0.3,2c0.1,0.4,0.3,0.8,0.5,1.1
		L262.1,163.7z"/>
	<path d="M260.3,166.6c-0.3-0.3-0.5-0.7-0.7-1.1c-0.2-0.5-0.3-1-0.4-1.6h0.4c0,0.5,0.1,1,0.3,1.4c0.2,0.4,0.4,0.7,0.6,1L260.3,166.6
		z"/>
	
		<rect x="256.9" y="157.2" transform="matrix(0.9994 -3.396000e-02 3.396000e-02 0.9994 -5.2342 8.8223)" width="0.4" height="2.6"/>
	<path d="M255.4,163.5l-0.3-0.4c0.3-0.2,0.5-0.5,0.7-0.8c0.4-0.6,0.4-1.1,0.4-1.5h0.4c0,0.4-0.1,1.1-0.5,1.7
		C256,163,255.7,163.3,255.4,163.5z"/>
	
		<rect x="262.3" y="165.2" transform="matrix(0.9994 -3.395711e-02 3.395711e-02 0.9994 -5.5023 9.0096)" width="0.4" height="2.6"/>
	<path d="M264.1,165c-0.3-0.3-0.5-0.7-0.7-1.1c-0.2-0.5-0.3-1-0.4-1.6h0.4c0,0.5,0.1,1,0.3,1.4c0.2,0.4,0.4,0.7,0.6,1L264.1,165z"/>
	<path d="M264.6,169.4c-0.2-0.4-0.4-0.8-0.5-1.2c-0.2-0.7-0.3-1.4-0.3-2.1h0.4c0,0.7,0.1,1.3,0.3,2c0.1,0.4,0.3,0.8,0.5,1.1
		L264.6,169.4z"/>
	<path d="M263.6,172.7c-0.3-0.3-0.5-0.7-0.7-1.1c-0.2-0.5-0.3-1-0.4-1.6h0.4c0,0.5,0.1,1,0.3,1.4c0.2,0.4,0.4,0.7,0.6,1L263.6,172.7
		z"/>
	
		<rect x="264.5" y="170.6" transform="matrix(0.9994 -3.395711e-02 3.395711e-02 0.9994 -5.6844 9.0874)" width="0.4" height="2.6"/>
	<path d="M267.4,175c-0.2-0.4-0.4-0.8-0.5-1.2c-0.2-0.7-0.3-1.4-0.3-2.1h0.4c0,0.7,0.1,1.3,0.3,2c0.1,0.4,0.3,0.8,0.5,1.1L267.4,175
		z"/>
	<path d="M253.4,171.1l-0.3-0.4c0.3-0.2,0.5-0.5,0.7-0.8c0.4-0.6,0.4-1.1,0.4-1.5h0.4c0,0.4-0.1,1.1-0.5,1.7
		C254,170.6,253.7,170.9,253.4,171.1z"/>
	
		<rect x="255.3" y="170.1" transform="matrix(0.9994 -3.412677e-02 3.412677e-02 0.9994 -5.7004 8.8191)" width="0.4" height="2.6"/>
	<path d="M251.8,175.1l-0.3-0.4c0.3-0.2,0.5-0.5,0.7-0.8c0.4-0.6,0.4-1.1,0.4-1.5h0.4c0,0.4-0.1,1.1-0.5,1.7
		C252.4,174.5,252.1,174.8,251.8,175.1z"/>
	
		<rect x="258.9" y="167.3" transform="matrix(0.9994 -3.395711e-02 3.395711e-02 0.9994 -5.5756 8.8953)" width="0.4" height="2.6"/>
	<path d="M255.8,169.3l-0.3-0.4c0.3-0.2,0.5-0.5,0.7-0.8c0.4-0.6,0.4-1.1,0.4-1.5h0.4c0,0.4-0.1,1.1-0.5,1.7
		C256.4,168.7,256.1,169,255.8,169.3z"/>
	<rect x="257.1" y="169.3" transform="matrix(0.9994 -3.396000e-02 3.396000e-02 0.9994 -5.645 8.8361)" width="0.4" height="2.6"/>
	<path d="M259.4,175.8c-0.2-0.4-0.4-0.8-0.5-1.2c-0.2-0.7-0.3-1.4-0.3-2.1h0.4c0,0.7,0.1,1.3,0.3,2c0.1,0.4,0.3,0.8,0.5,1.1
		L259.4,175.8z"/>
	<path d="M257.3,175.7c-0.3-0.3-0.5-0.7-0.7-1.1c-0.2-0.5-0.3-1-0.4-1.6h0.4c0,0.5,0.1,1,0.3,1.4c0.2,0.4,0.4,0.7,0.6,1L257.3,175.7
		z"/>
	
		<rect x="262.9" y="173.6" transform="matrix(0.9994 -3.395711e-02 3.395711e-02 0.9994 -5.7872 9.0348)" width="0.4" height="2.6"/>
	<path d="M261.7,174.4c-0.3-0.3-0.5-0.7-0.7-1.1c-0.2-0.5-0.3-1-0.4-1.6h0.4c0,0.5,0.1,1,0.3,1.4c0.2,0.4,0.4,0.7,0.6,1L261.7,174.4
		z"/>
	
		<rect x="260.9" y="167.9" transform="matrix(0.9994 -3.412677e-02 3.412677e-02 0.9994 -5.6221 9.0089)" width="0.4" height="2.6"/>
	
		<rect x="254.7" y="173.5" transform="matrix(0.9994 -3.412967e-02 3.412967e-02 0.9994 -5.8173 8.8013)" width="0.4" height="2.6"/>
	<rect x="259.4" y="176.9" width="0.9" height="8.4"/>
</g>
<g>
	<path d="M264.5,492.5C264.4,492.5,264.4,492.5,264.5,492.5l-32.7-10.9c-0.1,0-0.2-0.1-0.2-0.2s0.1-0.2,0.2-0.2l23.1-8.1h0.1
		l32.1,10.7c0.1,0,0.2,0.1,0.2,0.2s-0.1,0.2-0.1,0.2L264.5,492.5L264.5,492.5z M232.5,481.4l32,10.7l21.9-8.1L255,473.5L232.5,481.4
		z"/>
	<path d="M264.5,497.1c-0.1,0-0.2-0.1-0.2-0.2v-4.6c0-0.1,0.1-0.2,0.2-0.2s0.2,0.1,0.2,0.2v4.6C264.7,497,264.6,497.1,264.5,497.1z"
		/>
	<path d="M264.5,497.1C264.4,497.1,264.4,497.1,264.5,497.1l-32.7-10.9c-0.1,0-0.2-0.1-0.2-0.2v-4.6c0-0.1,0.1-0.2,0.2-0.2
		c0.1,0,0.2,0.1,0.2,0.2v4.4l32.4,10.8l22.3-8.2V484c0-0.1,0.1-0.2,0.2-0.2s0.2,0.1,0.2,0.2v4.6c0,0.1-0.1,0.2-0.1,0.2L264.5,497.1
		L264.5,497.1z"/>
</g>
<g>
	<path d="M258.7,340.3C258.6,340.3,258.6,340.3,258.7,340.3l-21-7c-0.1,0-0.2-0.1-0.2-0.2s0.1-0.2,0.2-0.2l23.1-8.1h0.1l21,7
		c0.1,0,0.2,0.1,0.2,0.2s-0.1,0.2-0.2,0.2L258.7,340.3L258.7,340.3z M238.4,333.1l20.3,6.8l22.5-7.9l-20.3-6.8L238.4,333.1z"/>
	<path d="M258.7,343.4C258.6,343.4,258.6,343.4,258.7,343.4l-21-7c-0.1,0-0.2-0.1-0.2-0.2v-3.1c0-0.1,0.1-0.2,0.2-0.2
		c0.1,0,0.2,0.1,0.2,0.2v2.9l20.8,6.9l22.9-8V332c0-0.1,0.1-0.2,0.2-0.2s0.2,0.1,0.2,0.2v3.1c0,0.1-0.1,0.2-0.2,0.2L258.7,343.4
		L258.7,343.4z"/>
</g>
<g>
	<path d="M259.3,249C259.2,249,259.2,249,259.3,249l-21-7c-0.1,0-0.2-0.1-0.2-0.2c0-0.1,0.1-0.2,0.2-0.2l23.1-8.1h0.1l21,7
		c0.1,0,0.2,0.1,0.2,0.2c0,0.1-0.1,0.2-0.2,0.2L259.3,249L259.3,249z M239,241.8l20.3,6.8l22.5-7.9l-20.3-6.8L239,241.8z"/>
	<path d="M259.3,252.1C259.2,252.1,259.2,252.1,259.3,252.1l-21-7c-0.1,0-0.2-0.1-0.2-0.2v-3.1c0-0.1,0.1-0.2,0.2-0.2
		c0.1,0,0.2,0.1,0.2,0.2v2.9l20.8,6.9l22.9-8v-2.9c0-0.1,0.1-0.2,0.2-0.2s0.2,0.1,0.2,0.2v3.1c0,0.1-0.1,0.2-0.2,0.2L259.3,252.1
		L259.3,252.1z"/>
</g>
<path d="M258.2,476.4c-0.1,0-0.2-0.1-0.2-0.2v-3.7c0-0.1,0.1-0.2,0.2-0.2s0.2,0.1,0.2,0.2v3.7C258.4,476.3,258.3,476.4,258.2,476.4z
	"/>
<path d="M260.1,476.9c-0.1,0-0.2-0.1-0.2-0.2V473c0-0.1,0.1-0.2,0.2-0.2s0.2,0.1,0.2,0.2v3.7C260.3,476.8,260.2,476.9,260.1,476.9z"
	/>
<path d="M261.9,477.8c-0.1,0-0.2-0.1-0.2-0.2v-3.7c0-0.1,0.1-0.2,0.2-0.2s0.2,0.1,0.2,0.2v3.7C262.1,477.7,262,477.8,261.9,477.8z"
	/>
<path d="M263.9,478.4c-0.1,0-0.2-0.1-0.2-0.2v-3.7c0-0.1,0.1-0.2,0.2-0.2s0.2,0.1,0.2,0.2v3.7C264.1,478.3,264,478.4,263.9,478.4z"
	/>
<path d="M265.8,479.1c-0.1,0-0.2-0.1-0.2-0.2v-3.7c0-0.1,0.1-0.2,0.2-0.2s0.2,0.1,0.2,0.2v3.7C266,479,265.9,479.1,265.8,479.1z"/>
<path d="M267.7,479.8c-0.1,0-0.2-0.1-0.2-0.2v-3.7c0-0.1,0.1-0.2,0.2-0.2s0.2,0.1,0.2,0.2v3.7C267.9,479.7,267.8,479.8,267.7,479.8z
	"/>
<path d="M269.5,480.4c-0.1,0-0.2-0.1-0.2-0.2v-3.7c0-0.1,0.1-0.2,0.2-0.2s0.2,0.1,0.2,0.2v3.7C269.7,480.3,269.6,480.4,269.5,480.4z
	"/>
<path d="M271.5,481c-0.1,0-0.2-0.1-0.2-0.2V477c0-0.1,0.1-0.2,0.2-0.2s0.2,0.1,0.2,0.2v3.7C271.7,480.9,271.6,481,271.5,481z"/>
<g>
	<path class="st1" d="M250.5,205.4c-1.6,0-3.2,0-4.8,0c0.1,0.3,0.3,0.8,0.7,1.2c0.7,0.8,1.5,1.1,1.9,1.2c1.5-0.4,3-0.8,4.5-1.3
		c-0.4-0.2-0.9-0.4-1.5-0.7C251,205.7,250.8,205.5,250.5,205.4z"/>
	<path d="M248.3,208L248.3,208c-0.6-0.2-1.4-0.5-2.1-1.3c-0.3-0.4-0.6-0.8-0.7-1.3c0-0.1,0-0.1,0-0.2c0-0.1,0.1-0.1,0.2-0.1h4.8h0.1
		c0.3,0.2,0.5,0.3,0.8,0.5c0.5,0.3,0.9,0.5,1.4,0.6c0.1,0,0.2,0.1,0.1,0.2c0,0.1-0.1,0.2-0.2,0.2L248.3,208
		C248.4,208,248.3,208,248.3,208z M246.1,205.6c0.1,0.3,0.3,0.6,0.5,0.8c0.6,0.7,1.2,1,1.7,1.1l3.8-1.1c-0.3-0.1-0.6-0.3-0.9-0.4
		c-0.3-0.1-0.5-0.3-0.8-0.5L246.1,205.6L246.1,205.6z"/>
</g>
<path d="M273.8,205.6H269c-0.1,0-0.2-0.1-0.2-0.2c0-0.1,0.1-0.2,0.2-0.2h4.4c-0.2-0.3-0.5-0.5-0.8-0.7c-0.7-0.5-1.3-0.6-1.8-0.6H269
	c-0.1,0-0.2-0.1-0.2-0.2c0-0.1,0.1-0.2,0.2-0.2l0,0h1.8c0.5,0,1.3,0.2,2,0.7c0.5,0.3,0.8,0.7,1.1,1.2c0,0.1,0,0.2,0,0.2
	C274,205.5,273.9,205.6,273.8,205.6z"/>
<g>
	<path class="st1" d="M259.8,207.1c0,1.3,0,2.5,0,3.8c0.6,0,2,0.1,3.4-0.7c1.1-0.6,1.8-1.3,2.1-1.8c-0.3-0.5-0.6-1.1-1-1.6
		c-0.5,0.1-1.1,0.2-1.8,0.3C261.6,207.2,260.7,207.2,259.8,207.1z"/>
	<path d="M260.3,211.2c-0.2,0-0.3,0-0.5,0c-0.1,0-0.2-0.1-0.2-0.2v-3.8c0-0.1,0-0.1,0.1-0.2c0,0,0.1-0.1,0.2-0.1
		c0.9,0.1,1.9,0.1,2.8,0c0.6-0.1,1.2-0.1,1.7-0.3c0.1,0,0.2,0,0.2,0.1l1,1.6c0,0.1,0,0.2,0,0.3c-0.6,0.8-1.3,1.4-2.2,1.9
		C262.2,211,261.1,211.2,260.3,211.2z M260.1,210.7c0.8,0,1.9-0.1,3.1-0.7c0.7-0.4,1.4-0.9,2-1.6l-0.8-1.3c-0.5,0.1-1.1,0.2-1.6,0.2
		c-0.9,0.1-1.8,0.1-2.6,0v3.4L260.1,210.7L260.1,210.7z"/>
</g>
<g>
	<path d="M6.1,6.1C5.9,5.8,5.6,5.5,5.2,5.4S4.5,5.1,4.1,5.1C3.7,5.1,3.3,5.2,3,5.4C2.6,5.5,2.3,5.7,2.1,6C1.9,6.3,1.7,6.6,1.6,6.9
		S1.5,7.7,1.5,8.1c0,0.4,0.1,0.8,0.2,1.1S2,9.9,2.2,10.2s0.5,0.5,0.8,0.6C3.4,11,3.7,11,4.1,11c0.9,0,1.5-0.3,2-1l1,0.9
		c-0.4,0.4-0.8,0.8-1.4,1c-0.5,0.2-1.1,0.3-1.6,0.3c-0.6,0-1.2-0.1-1.7-0.3c-0.5-0.2-0.9-0.5-1.3-0.9c-0.4-0.4-0.6-0.8-0.8-1.3
		C0.1,9.3,0,8.7,0,8.1c0-0.6,0.1-1.2,0.3-1.7c0.2-0.5,0.5-1,0.8-1.3S2,4.4,2.5,4.2C3,4,3.5,3.9,4.1,3.9c0.6,0,1.1,0.1,1.7,0.3
		s1,0.5,1.4,1L6.1,6.1z"/>
	<path d="M9.9,8.1c0-0.6,0.1-1.2,0.3-1.7c0.2-0.5,0.5-0.9,0.9-1.3c0.4-0.4,0.8-0.7,1.3-0.9C13,4,13.6,3.9,14.2,3.9
		c0.6,0,1.2,0.1,1.7,0.3c0.5,0.2,1,0.5,1.3,0.9c0.4,0.4,0.7,0.8,0.9,1.3c0.2,0.5,0.3,1.1,0.3,1.7c0,0.6-0.1,1.2-0.3,1.7
		c-0.2,0.5-0.5,0.9-0.9,1.3s-0.8,0.7-1.3,0.9c-0.5,0.2-1.1,0.3-1.7,0.3c-0.6,0-1.2-0.1-1.7-0.3c-0.5-0.2-1-0.5-1.3-0.9
		s-0.7-0.8-0.9-1.3C10,9.3,9.9,8.7,9.9,8.1z M11.3,8.1c0,0.4,0.1,0.8,0.2,1.2s0.3,0.7,0.6,0.9c0.2,0.3,0.5,0.5,0.9,0.6
		s0.7,0.2,1.2,0.2s0.8-0.1,1.2-0.2s0.6-0.4,0.9-0.6c0.2-0.3,0.4-0.6,0.6-0.9S17,8.5,17,8.1c0-0.4-0.1-0.8-0.2-1.2S16.5,6.2,16.2,6
		c-0.2-0.3-0.5-0.5-0.9-0.6s-0.7-0.2-1.2-0.2S13.4,5.2,13,5.4S12.4,5.7,12.1,6c-0.2,0.3-0.4,0.6-0.6,0.9S11.3,7.7,11.3,8.1z"/>
	<path d="M22.2,6c0-0.4,0-0.7,0-1c0-0.3,0-0.6,0-0.9h1.3c0,0.2,0,0.4,0,0.6s0,0.4,0,0.7h0c0.1-0.2,0.2-0.4,0.4-0.6
		c0.2-0.2,0.4-0.3,0.6-0.5s0.5-0.3,0.8-0.3c0.3-0.1,0.6-0.1,0.9-0.1c0.5,0,1,0.1,1.4,0.2c0.4,0.2,0.7,0.4,0.9,0.7
		c0.2,0.3,0.4,0.6,0.6,1c0.1,0.4,0.2,0.8,0.2,1.3v4.9h-1.3V7.3c0-0.7-0.1-1.2-0.4-1.6C27,5.3,26.6,5.1,26,5.1
		c-0.4,0-0.8,0.1-1.1,0.2c-0.3,0.1-0.6,0.4-0.8,0.6s-0.3,0.6-0.4,1c-0.1,0.4-0.1,0.8-0.1,1.2v3.9h-1.3V6z"/>
	<path d="M33.5,10c0.3,0.3,0.5,0.6,0.9,0.8c0.3,0.2,0.7,0.3,1.2,0.3c0.2,0,0.4,0,0.6-0.1c0.2,0,0.4-0.1,0.6-0.2
		c0.2-0.1,0.3-0.2,0.4-0.4c0.1-0.2,0.2-0.3,0.2-0.6c0-0.2,0-0.4-0.1-0.5C37,9.2,36.9,9,36.8,8.9c-0.2-0.1-0.3-0.2-0.5-0.2
		c-0.2-0.1-0.4-0.1-0.6-0.2c-0.4-0.1-0.7-0.2-1.1-0.3c-0.3-0.1-0.6-0.2-0.9-0.4c-0.3-0.2-0.5-0.4-0.6-0.6c-0.2-0.3-0.2-0.6-0.2-1
		c0-0.4,0.1-0.7,0.3-1c0.2-0.3,0.4-0.5,0.7-0.7s0.6-0.3,1-0.4C35,4,35.4,3.9,35.8,3.9c0.6,0,1.1,0.1,1.6,0.3
		c0.5,0.2,0.9,0.6,1.1,1.1l-1.1,0.7c-0.2-0.3-0.4-0.5-0.7-0.7c-0.3-0.2-0.6-0.3-1-0.3c-0.2,0-0.4,0-0.6,0.1c-0.2,0-0.4,0.1-0.5,0.2
		c-0.1,0.1-0.3,0.2-0.4,0.3c-0.1,0.1-0.1,0.3-0.1,0.5c0,0.2,0.1,0.3,0.2,0.4c0.1,0.1,0.3,0.2,0.4,0.3c0.2,0.1,0.4,0.2,0.6,0.2
		c0.2,0.1,0.5,0.1,0.8,0.2c0.4,0.1,0.7,0.2,1,0.3c0.3,0.1,0.6,0.3,0.8,0.4c0.2,0.2,0.4,0.4,0.6,0.7c0.1,0.3,0.2,0.6,0.2,1
		c0,0.5-0.1,0.8-0.3,1.2c-0.2,0.3-0.4,0.6-0.7,0.8c-0.3,0.2-0.6,0.3-1,0.4c-0.4,0.1-0.8,0.1-1.2,0.1c-0.7,0-1.3-0.1-1.8-0.3
		c-0.5-0.2-0.9-0.6-1.3-1.2L33.5,10z"/>
	<path d="M46.6,5.2h-2.3v4c0,0.3,0,0.5,0,0.7c0,0.2,0.1,0.4,0.1,0.6c0.1,0.2,0.2,0.3,0.4,0.4c0.2,0.1,0.4,0.1,0.7,0.1
		c0.2,0,0.4,0,0.6-0.1c0.2,0,0.4-0.1,0.6-0.2l0.1,1.2c-0.2,0.1-0.5,0.2-0.8,0.2c-0.3,0-0.5,0.1-0.8,0.1c-0.5,0-0.9-0.1-1.1-0.2
		c-0.3-0.1-0.5-0.3-0.7-0.5c-0.2-0.2-0.3-0.5-0.3-0.8c-0.1-0.3-0.1-0.7-0.1-1.1V5.2h-1.7V4.1h1.7V1.8h1.3v2.3h2.3V5.2z"/>
	<path d="M50,6c0-0.4,0-0.7,0-1c0-0.3,0-0.6,0-0.9h1.3c0,0.2,0,0.4,0,0.6s0,0.4,0,0.7h0c0.1-0.2,0.2-0.4,0.4-0.6
		c0.2-0.2,0.4-0.3,0.6-0.5s0.5-0.3,0.8-0.3c0.3-0.1,0.6-0.1,0.9-0.1c0.1,0,0.2,0,0.3,0c0.1,0,0.2,0,0.3,0.1l-0.1,1.3
		c-0.2-0.1-0.5-0.1-0.7-0.1c-0.8,0-1.4,0.3-1.8,0.8c-0.4,0.5-0.6,1.2-0.6,2.2v3.9H50V6z"/>
	<path d="M64.6,10.2c0,0.4,0,0.7,0,1c0,0.3,0,0.6,0,0.9h-1.3c0-0.2,0-0.4,0-0.6s0-0.4,0-0.7h0c-0.1,0.2-0.2,0.4-0.4,0.6
		c-0.2,0.2-0.4,0.3-0.6,0.5c-0.2,0.1-0.5,0.3-0.8,0.3c-0.3,0.1-0.6,0.1-0.9,0.1c-0.5,0-1-0.1-1.4-0.2c-0.4-0.2-0.7-0.4-0.9-0.7
		c-0.2-0.3-0.4-0.6-0.6-1c-0.1-0.4-0.2-0.8-0.2-1.3V4.1H59v4.8c0,0.7,0.1,1.2,0.4,1.6c0.3,0.4,0.8,0.6,1.4,0.6
		c0.4,0,0.8-0.1,1.1-0.2c0.3-0.1,0.6-0.4,0.8-0.6c0.2-0.3,0.3-0.6,0.4-1c0.1-0.4,0.1-0.8,0.1-1.2V4.1h1.3V10.2z"/>
	<path d="M74.5,6.1c-0.3-0.3-0.6-0.6-0.9-0.7s-0.7-0.2-1.1-0.2c-0.4,0-0.8,0.1-1.2,0.2c-0.3,0.2-0.6,0.4-0.8,0.6
		c-0.2,0.3-0.4,0.6-0.5,0.9s-0.2,0.7-0.2,1.1c0,0.4,0.1,0.8,0.2,1.1s0.3,0.7,0.5,0.9s0.5,0.5,0.8,0.6C71.7,11,72,11,72.4,11
		c0.9,0,1.5-0.3,2-1l1,0.9c-0.4,0.4-0.8,0.8-1.4,1c-0.5,0.2-1.1,0.3-1.6,0.3c-0.6,0-1.2-0.1-1.7-0.3c-0.5-0.2-0.9-0.5-1.3-0.9
		c-0.4-0.4-0.6-0.8-0.8-1.3c-0.2-0.5-0.3-1.1-0.3-1.7c0-0.6,0.1-1.2,0.3-1.7c0.2-0.5,0.5-1,0.8-1.3s0.8-0.7,1.3-0.9
		c0.5-0.2,1.1-0.3,1.7-0.3c0.6,0,1.1,0.1,1.7,0.3s1,0.5,1.4,1L74.5,6.1z"/>
	<path d="M83,5.2h-2.3v4c0,0.3,0,0.5,0,0.7c0,0.2,0.1,0.4,0.1,0.6c0.1,0.2,0.2,0.3,0.4,0.4c0.2,0.1,0.4,0.1,0.7,0.1
		c0.2,0,0.4,0,0.6-0.1c0.2,0,0.4-0.1,0.6-0.2l0.1,1.2c-0.2,0.1-0.5,0.2-0.8,0.2c-0.3,0-0.5,0.1-0.8,0.1c-0.5,0-0.9-0.1-1.1-0.2
		c-0.3-0.1-0.5-0.3-0.7-0.5c-0.2-0.2-0.3-0.5-0.3-0.8c-0.1-0.3-0.1-0.7-0.1-1.1V5.2h-1.7V4.1h1.7V1.8h1.3v2.3H83V5.2z"/>
	<path d="M86.2,1c0-0.3,0.1-0.5,0.3-0.7C86.7,0.1,86.9,0,87.2,0s0.5,0.1,0.7,0.3C88,0.5,88.1,0.7,88.1,1c0,0.3-0.1,0.5-0.3,0.7
		C87.7,1.9,87.4,2,87.2,2c-0.3,0-0.5-0.1-0.7-0.3C86.3,1.5,86.2,1.3,86.2,1z M86.5,4.1h1.3v8h-1.3V4.1z"/>
	<path d="M91.7,8.1c0-0.6,0.1-1.2,0.3-1.7c0.2-0.5,0.5-0.9,0.9-1.3c0.4-0.4,0.8-0.7,1.3-0.9C94.8,4,95.3,3.9,96,3.9
		c0.6,0,1.2,0.1,1.7,0.3c0.5,0.2,1,0.5,1.3,0.9c0.4,0.4,0.7,0.8,0.9,1.3c0.2,0.5,0.3,1.1,0.3,1.7c0,0.6-0.1,1.2-0.3,1.7
		c-0.2,0.5-0.5,0.9-0.9,1.3s-0.8,0.7-1.3,0.9c-0.5,0.2-1.1,0.3-1.7,0.3c-0.6,0-1.2-0.1-1.7-0.3c-0.5-0.2-1-0.5-1.3-0.9
		s-0.7-0.8-0.9-1.3C91.8,9.3,91.7,8.7,91.7,8.1z M93.1,8.1c0,0.4,0.1,0.8,0.2,1.2s0.3,0.7,0.6,0.9c0.2,0.3,0.5,0.5,0.9,0.6
		S95.5,11,96,11s0.8-0.1,1.2-0.2s0.6-0.4,0.9-0.6c0.2-0.3,0.4-0.6,0.6-0.9s0.2-0.7,0.2-1.2c0-0.4-0.1-0.8-0.2-1.2S98.3,6.2,98,6
		c-0.2-0.3-0.5-0.5-0.9-0.6S96.4,5.1,96,5.1s-0.8,0.1-1.2,0.2S94.1,5.7,93.9,6c-0.2,0.3-0.4,0.6-0.6,0.9S93.1,7.7,93.1,8.1z"/>
	<path d="M104,6c0-0.4,0-0.7,0-1c0-0.3,0-0.6,0-0.9h1.3c0,0.2,0,0.4,0,0.6s0,0.4,0,0.7h0c0.1-0.2,0.2-0.4,0.4-0.6
		c0.2-0.2,0.4-0.3,0.6-0.5s0.5-0.3,0.8-0.3c0.3-0.1,0.6-0.1,0.9-0.1c0.5,0,1,0.1,1.4,0.2c0.4,0.2,0.7,0.4,0.9,0.7
		c0.2,0.3,0.4,0.6,0.6,1c0.1,0.4,0.2,0.8,0.2,1.3v4.9h-1.3V7.3c0-0.7-0.1-1.2-0.4-1.6c-0.3-0.4-0.8-0.6-1.4-0.6
		c-0.4,0-0.8,0.1-1.1,0.2c-0.3,0.1-0.6,0.4-0.8,0.6s-0.3,0.6-0.4,1c-0.1,0.4-0.1,0.8-0.1,1.2v3.9H104V6z"/>
</g>
</svg>
